# xmcd
#
# Track frame offsets: 
#        150
#        17845
#        32492
#        50607
#        65945
#        82200
#        96325
#        112490
#        126200
#        139362
#        158077
#        175250
#        190172
#        204112
#
# Disc length: 2883 seconds
#
# Revision: 4
# Processed by: cddbd v1.5.2PL0 Copyright (c) Steve Scherf et al.
# Submitted via: ExactAudioCopy v1.0b4
#
DISCID=d10b410e
DTITLE=Flávio José - Filho do Dono
DYEAR=1996
DGENRE=Forró
TTITLE0=Caia Por Cima de Mim
TTITLE1=Filho do Dono
TTITLE2=Gente Sofrida
TTITLE3=Dois Rubís
TTITLE4=Coração Que Ama
TTITLE5=Ciscadinho
TTITLE6=Caminhos do Sertão
TTITLE7=Mensageiro Beija-Flor
TTITLE8=Filosofia
TTITLE9=Oh! Vaqueiro
TTITLE10=Mulher Comprometida
TTITLE11=Quadrilha no Pé de Serra
TTITLE12=Raiz do Coração
TTITLE13=Louco de Paixão
EXTD=
EXTT0=
EXTT1=
EXTT2=
EXTT3=
EXTT4=
EXTT5=
EXTT6=
EXTT7=
EXTT8=
EXTT9=
EXTT10=
EXTT11=
EXTT12=
EXTT13=
PLAYORDER=
